<?xml version="1.0" standalone="no"?>
<!DOCTYPE svg PUBLIC "-//W3C//DTD SVG 20010904//EN"
 "http://www.w3.org/TR/2001/REC-SVG-20010904/DTD/svg10.dtd">
<svg version="1.0" xmlns="http://www.w3.org/2000/svg"
 width="182.000000pt" height="1171.000000pt" viewBox="0 0 182.000000 1171.000000"
 preserveAspectRatio="xMidYMid meet">

<g transform="translate(0.000000,1171.000000) scale(0.100000,-0.100000)"
fill="#000000" stroke="none">
<path d="M894 7366 c-39 -17 -72 -59 -80 -101 -6 -36 26 -125 45 -125 25 0 7
-50 -44 -120 -39 -53 -55 -84 -55 -106 0 -17 20 -74 44 -126 56 -120 64 -148
41 -148 -11 0 -30 30 -60 93 -24 50 -50 100 -57 111 -14 17 -16 16 -44 -20
-45 -59 -110 -173 -128 -227 -31 -92 -14 -197 55 -333 l41 -81 -21 -41 c-27
-53 -26 -66 5 -91 26 -20 38 -21 319 -21 l292 0 23 24 c29 32 29 70 -1 102
l-24 25 37 67 c53 98 71 170 66 264 -6 102 -47 185 -210 429 l-121 180 27 28
c105 109 -11 277 -150 217z"/>
<path d="M683 5998 c-4 -7 -10 -56 -13 -108 l-5 -95 -40 -3 c-68 -4 -85 -11
-105 -45 -39 -64 -19 -136 46 -163 50 -21 719 -20 769 0 68 29 84 125 29 177
-19 17 -41 25 -82 29 l-57 5 -1 85 c0 47 -1 95 -2 108 l-2 22 -264 0 c-201 0
-267 -3 -273 -12z"/>
<path d="M715 5541 c-3 -6 -10 -47 -16 -93 -12 -99 -89 -337 -160 -498 -28
-63 -60 -137 -72 -163 -18 -41 -19 -49 -7 -57 9 -6 213 -10 486 -10 382 0 474
3 489 14 18 13 15 21 -52 172 -88 196 -147 367 -168 482 -9 48 -21 104 -26
125 l-10 37 -229 0 c-131 0 -231 -4 -235 -9z"/>
<path d="M378 4700 c-28 -17 -42 -74 -26 -107 l13 -28 573 -3 c561 -2 572 -2
592 18 25 25 26 71 1 101 l-19 24 -559 2 c-355 2 -564 -1 -575 -7z"/>
<path d="M385 4509 c-41 -37 -118 -186 -140 -274 -30 -118 -10 -297 44 -404
39 -75 -1 -71 638 -71 347 0 582 4 597 10 59 22 118 184 119 325 0 113 -17
176 -91 327 l-57 117 -537 0 -537 1 -36 -31z"/>
<path d="M330 3737 c-41 -14 -70 -63 -70 -119 0 -27 6 -40 19 -48 30 -15 1303
-14 1319 2 34 34 -3 137 -58 165 -34 18 -1158 17 -1210 0z"/>
</g>
</svg>
