<?xml version="1.0" standalone="no"?>
<!DOCTYPE svg PUBLIC "-//W3C//DTD SVG 20010904//EN"
 "http://www.w3.org/TR/2001/REC-SVG-20010904/DTD/svg10.dtd">
<svg version="1.0" xmlns="http://www.w3.org/2000/svg"
 width="177.000000pt" height="1181.000000pt" viewBox="0 0 177.000000 1181.000000"
 preserveAspectRatio="xMidYMid meet">

<g transform="translate(0.000000,1181.000000) scale(0.100000,-0.100000)"
fill="#000000" stroke="none">
<path d="M814 8139 c-55 -16 -58 -30 -17 -83 28 -36 37 -56 37 -89 1 -36 -2
-42 -21 -45 -27 -4 -91 28 -122 62 -14 14 -28 26 -31 26 -17 0 -45 -87 -44
-139 0 -59 19 -131 35 -131 5 0 27 13 50 29 79 58 139 61 139 9 0 -22 -43
-100 -65 -118 -60 -50 85 -92 203 -60 23 6 42 15 42 21 0 6 -18 36 -40 66 -40
56 -53 114 -29 128 22 14 81 -8 126 -47 44 -38 48 -39 60 -22 24 32 35 96 28
153 -13 102 -31 112 -109 56 -58 -41 -89 -44 -111 -11 -18 28 -15 37 36 113
16 23 29 48 29 56 0 32 -121 48 -196 26z"/>
<path d="M630 7553 c-24 -8 -40 -34 -40 -64 0 -38 -15 -46 -102 -52 -172 -12
-257 -91 -258 -237 0 -88 24 -136 195 -389 l137 -204 -7 -176 c-3 -97 -9 -184
-11 -193 -4 -14 -16 -18 -50 -18 -25 0 -58 -7 -74 -15 -57 -29 -78 -111 -46
-173 32 -62 31 -62 506 -62 l430 0 38 34 c34 32 37 39 37 90 0 49 -4 59 -32
88 -26 26 -43 33 -85 38 l-53 5 -9 197 -8 197 129 193 c190 282 198 298 198
383 -1 75 -16 117 -64 168 -41 45 -79 60 -176 68 -99 8 -125 25 -125 78 0 50
-6 51 -269 50 -136 0 -253 -3 -261 -6z"/>
<path d="M634 5943 c-11 -8 -21 -73 -44 -303 -12 -124 -67 -375 -105 -480 -15
-41 -61 -151 -102 -244 -41 -93 -72 -175 -69 -182 4 -12 103 -14 581 -14 l575
0 0 22 c0 12 -17 53 -39 92 -147 271 -242 583 -280 922 -10 91 -24 171 -30
177 -14 14 -468 22 -487 10z"/>
<path d="M242 4683 c-35 -30 -38 -68 -8 -97 l25 -26 636 0 c622 0 635 0 655
20 26 26 26 72 -1 96 -20 18 -48 19 -654 22 -593 2 -634 1 -653 -15z"/>
<path d="M265 4521 c-66 -40 -137 -161 -165 -280 -18 -78 -8 -201 24 -286 45
-117 -40 -105 745 -105 765 0 713 -5 751 70 53 104 62 255 21 370 -26 75 -90
211 -109 233 -14 16 -57 17 -626 17 -577 0 -613 -1 -641 -19z"/>
<path d="M159 3815 c-33 -18 -51 -61 -47 -111 l3 -39 754 -3 c549 -1 758 1
767 9 8 6 14 22 14 36 0 32 -36 100 -59 113 -13 7 -254 10 -713 10 -579 -1
-697 -3 -719 -15z"/>
</g>
</svg>
