<?xml version="1.0" standalone="no"?>
<!DOCTYPE svg PUBLIC "-//W3C//DTD SVG 20010904//EN"
 "http://www.w3.org/TR/2001/REC-SVG-20010904/DTD/svg10.dtd">
<svg version="1.0" xmlns="http://www.w3.org/2000/svg"
 width="217.000000pt" height="1181.000000pt" viewBox="0 0 217.000000 1181.000000"
 preserveAspectRatio="xMidYMid meet">

<g transform="translate(0.000000,1181.000000) scale(0.100000,-0.100000)"
fill="#000000" stroke="none">
<path d="M1242 6978 l-32 -33 -173 0 c-169 0 -174 -1 -267 -33 -212 -74 -343
-188 -444 -390 -78 -156 -135 -371 -157 -597 -15 -152 -6 -504 16 -644 25
-157 78 -357 118 -444 30 -65 42 -80 71 -92 30 -13 117 -15 530 -15 458 0 495
1 516 18 19 16 24 40 46 212 13 107 24 210 24 228 0 29 -15 49 -118 156 -65
67 -142 158 -171 201 -71 106 -144 259 -176 370 -28 96 -42 241 -27 264 18 25
39 4 46 -46 19 -140 112 -189 281 -148 72 18 164 19 216 4 20 -7 61 -31 91
-55 77 -64 88 -61 157 44 77 115 96 179 69 237 -6 14 -51 57 -99 95 -109 87
-203 203 -266 328 -30 60 -66 114 -97 144 -45 46 -48 51 -40 86 12 59 8 82
-22 113 -36 37 -52 37 -92 -3z"/>
<path d="M330 4707 c-59 -20 -68 -101 -15 -125 19 -9 180 -12 589 -12 552 0
563 0 584 20 40 37 23 99 -32 120 -41 15 -1080 13 -1126 -3z"/>
<path d="M304 4524 c-43 -45 -119 -201 -135 -274 -25 -116 13 -313 72 -376
l22 -24 622 0 622 0 21 23 c12 12 33 54 48 92 24 60 27 84 27 170 0 118 -27
211 -96 340 l-43 80 -563 3 -563 2 -34 -36z"/>
<path d="M216 3806 c-28 -31 -45 -86 -35 -113 4 -12 20 -23 39 -27 18 -3 326
-6 686 -6 597 0 654 1 669 17 27 26 13 81 -30 121 l-35 32 -635 0 -636 0 -23
-24z"/>
</g>
</svg>
