<?xml version="1.0" standalone="no"?>
<!DOCTYPE svg PUBLIC "-//W3C//DTD SVG 20010904//EN"
 "http://www.w3.org/TR/2001/REC-SVG-20010904/DTD/svg10.dtd">
<svg version="1.0" xmlns="http://www.w3.org/2000/svg"
 width="175.000000pt" height="924.000000pt" viewBox="0 0 175.000000 924.000000"
 preserveAspectRatio="xMidYMid meet">

<g transform="translate(0.000000,924.000000) scale(0.100000,-0.100000)"
fill="#000000" stroke="none">
<path d="M863 4056 c-129 -42 -238 -155 -273 -285 -18 -67 -14 -177 9 -244 24
-69 47 -105 115 -174 l50 -53 -94 0 c-74 0 -102 -4 -136 -21 -115 -55 -120
-218 -9 -282 11 -7 70 -14 130 -17 l110 -5 3 -31 c6 -58 -141 -573 -220 -773
-16 -41 -27 -80 -24 -88 8 -19 944 -20 952 0 3 8 -21 76 -52 153 -110 270
-237 686 -221 727 5 14 21 17 103 17 110 0 151 14 187 64 30 43 31 142 1 183
-37 51 -97 73 -195 73 l-88 0 55 55 c165 165 171 423 13 590 -34 36 -76 67
-118 87 -58 28 -78 32 -161 35 -61 2 -110 -2 -137 -11z"/>
<path d="M440 2030 c-22 -22 -27 -79 -8 -98 9 -9 148 -12 563 -12 522 0 553 1
568 18 25 28 21 67 -9 91 -26 21 -36 21 -560 21 -521 0 -534 0 -554 -20z"/>
<path d="M399 1823 c-70 -110 -103 -220 -96 -321 6 -87 38 -184 73 -219 l23
-23 586 0 c351 0 593 4 604 10 10 5 31 37 46 72 41 89 47 216 15 320 -26 85
-72 183 -102 216 l-21 22 -539 0 -539 0 -50 -77z"/>
<path d="M353 1225 c-25 -17 -39 -71 -29 -110 l6 -25 649 0 c577 0 651 2 665
16 9 8 16 17 16 18 0 17 -27 76 -43 94 l-20 22 -612 0 c-532 0 -613 -2 -632
-15z"/>
</g>
</svg>
