<?xml version="1.0" standalone="no"?>
<!DOCTYPE svg PUBLIC "-//W3C//DTD SVG 20010904//EN"
 "http://www.w3.org/TR/2001/REC-SVG-20010904/DTD/svg10.dtd">
<svg version="1.0" xmlns="http://www.w3.org/2000/svg"
 width="205.000000pt" height="1181.000000pt" viewBox="0 0 205.000000 1181.000000"
 preserveAspectRatio="xMidYMid meet">

<g transform="translate(0.000000,1181.000000) scale(0.100000,-0.100000)"
fill="#000000" stroke="none">
<path d="M1009 7806 c-77 -21 -135 -71 -168 -147 -50 -112 -32 -211 52 -296
83 -82 179 -100 299 -54 44 16 110 82 131 131 42 92 16 229 -56 298 -64 62
-175 91 -258 68z"/>
<path d="M465 7244 c-38 -19 -72 -61 -80 -96 -13 -57 4 -89 95 -178 98 -95
153 -175 200 -287 44 -106 81 -277 83 -387 l2 -91 -65 -2 c-97 -4 -126 -11
-160 -39 -61 -52 -61 -141 1 -200 l30 -29 472 -3 c460 -2 473 -2 505 18 72 44
81 146 18 209 -35 34 -40 36 -116 39 l-80 4 0 62 c0 95 27 248 60 349 47 139
101 226 219 350 l103 108 -4 55 c-4 43 -11 61 -33 84 -52 54 -105 56 -207 10
-60 -27 -124 -25 -184 5 -61 31 -92 31 -152 1 -89 -44 -153 -42 -222 9 -43 32
-58 31 -123 -2 -69 -35 -147 -35 -234 1 -73 30 -87 31 -128 10z"/>
<path d="M810 5884 c-6 -14 -10 -42 -10 -62 0 -105 -56 -439 -96 -579 -21 -74
-85 -222 -168 -393 -36 -74 -66 -138 -66 -142 0 -5 270 -8 600 -8 l600 0 0 23
c0 13 -12 39 -26 58 -61 81 -162 314 -213 494 -42 146 -69 292 -85 467 -8 80
-17 151 -21 157 -4 7 -88 11 -256 11 l-249 0 -10 -26z"/>
<path d="M402 4670 c-20 -9 -42 -45 -42 -71 0 -5 11 -21 25 -34 l24 -25 659 0
c511 0 662 3 675 13 27 20 32 69 9 97 l-20 25 -654 2 c-380 1 -662 -2 -676 -7z"/>
<path d="M417 4523 c-21 -6 -120 -155 -150 -227 -16 -40 -21 -73 -21 -156 -1
-114 14 -178 61 -257 l25 -43 716 0 c664 0 719 2 738 18 69 55 104 251 69 387
-22 83 -99 239 -131 264 -26 21 -32 21 -658 20 -347 -1 -639 -3 -649 -6z"/>
<path d="M297 3796 c-29 -27 -40 -59 -35 -102 l3 -29 773 -3 c522 -1 779 1
793 8 11 6 19 21 19 36 0 37 -25 91 -48 103 -14 8 -247 11 -750 11 l-729 0
-26 -24z"/>
</g>
</svg>
