<?xml version="1.0" standalone="no"?>
<!DOCTYPE svg PUBLIC "-//W3C//DTD SVG 20010904//EN"
 "http://www.w3.org/TR/2001/REC-SVG-20010904/DTD/svg10.dtd">
<svg version="1.0" xmlns="http://www.w3.org/2000/svg"
 width="207.000000pt" height="1181.000000pt" viewBox="0 0 207.000000 1181.000000"
 preserveAspectRatio="xMidYMid meet">

<g transform="translate(0.000000,1181.000000) scale(0.100000,-0.100000)"
fill="#000000" stroke="none">
<path d="M321 6901 c-31 -20 31 -271 96 -391 50 -92 131 -190 170 -206 26 -11
125 -14 490 -14 444 0 458 1 500 21 56 27 140 130 188 230 32 68 74 213 88
300 9 62 6 64 -181 67 -223 5 -217 9 -197 -141 20 -149 23 -146 -117 -144
l-113 2 0 70 c0 39 3 99 5 135 l5 65 -131 9 c-73 5 -153 5 -179 2 -44 -7 -46
-9 -40 -35 13 -60 23 -226 14 -236 -6 -5 -61 -12 -124 -13 l-115 -4 0 54 c0
29 5 87 10 128 15 109 13 110 -194 110 -88 0 -167 -4 -175 -9z"/>
<path d="M537 6259 c-11 -6 -25 -26 -33 -45 -12 -29 -12 -39 0 -68 28 -67 20
-66 571 -66 539 0 540 0 584 56 27 34 23 75 -11 111 l-21 23 -536 0 c-363 -1
-542 -4 -554 -11z"/>
<path d="M631 6056 c-7 -8 -21 -105 -31 -219 -31 -324 -79 -818 -86 -869 l-6
-48 554 0 c450 0 558 3 573 14 16 12 18 23 12 117 -4 57 -27 304 -51 549 -38
377 -48 447 -63 457 -27 20 -886 19 -902 -1z"/>
<path d="M405 4876 c-18 -18 -25 -36 -25 -64 0 -77 -47 -73 714 -70 l678 3 19
24 c26 31 24 64 -5 98 l-24 28 -666 3 -666 2 -25 -24z"/>
<path d="M458 4708 c-27 -21 -176 -251 -210 -324 -29 -61 -33 -79 -33 -154 1
-134 65 -313 121 -339 18 -8 239 -11 758 -11 685 0 734 1 748 18 26 28 65 113
88 190 30 100 25 229 -13 320 -43 105 -158 293 -185 303 -13 5 -301 9 -641 9
-479 0 -621 -3 -633 -12z"/>
<path d="M296 3828 c-41 -41 -74 -132 -56 -153 11 -13 122 -15 843 -13 730 3
831 5 839 18 16 24 -9 97 -47 138 l-33 37 -757 3 -757 2 -32 -32z"/>
</g>
</svg>
